<svg xmlns="http://www.w3.org/2000/svg" viewBox="0 0 32 32" fill="none">
  <defs>
    <linearGradient id="g" x1="0" y1="0" x2="32" y2="32">
      <stop offset="0%" stop-color="#4DA2FF"/>
      <stop offset="100%" stop-color="#8B5CF6"/>
    </linearGradient>
  </defs>
  <rect width="32" height="32" rx="8" fill="url(#g)"/>
  <path d="M16 7c-1.5 0-2.8.8-3.5 2L8 20c-.7 1.2-.7 2.8 0 4 .7 1.2 2 2 3.5 2h9c1.5 0 2.8-.8 3.5-2 .7-1.2.7-2.8 0-4L19.5 9C18.8 7.8 17.5 7 16 7zm0 4l3.5 6.5c.4.7.4 1.5 0 2.2-.4.7-1.1 1.3-2 1.3h-3c-.9 0-1.6-.6-2-1.3-.4-.7-.4-1.5 0-2.2L16 11z" fill="white" opacity="0.95"/>
</svg>
